<svg width="97" height="95" viewBox="0 0 97 95" fill="none" xmlns="http://www.w3.org/2000/svg">
<path d="M79.3587 0H17.0772C7.64573 0 0 7.64573 0 17.0772V76.9482C0 86.3797 7.64573 94.0254 17.0772 94.0254H79.3587C88.7902 94.0254 96.436 86.3797 96.436 76.9482V17.0772C96.436 7.64573 88.7902 0 79.3587 0Z" fill="#00005B"/>
<path d="M38.741 56.2538H23.7959L20.7549 65.7173C20.7152 65.8903 20.6157 66.0438 20.4738 66.1505C20.3319 66.2573 20.1569 66.3104 19.9796 66.3006H12.4186C11.9877 66.3006 11.8371 66.0616 11.967 65.5874L24.9061 28.4786C25.0341 28.0909 25.1639 27.7108 25.2938 27.2159C25.4633 26.3524 25.5496 25.4746 25.5516 24.5946C25.5371 24.4895 25.5648 24.3831 25.6286 24.2984C25.6925 24.2138 25.7872 24.1579 25.8922 24.1429C25.9296 24.1373 25.9677 24.1373 26.0051 24.1429H36.291C36.592 24.1429 36.7652 24.2502 36.8085 24.4666L51.4864 65.6533C51.6118 66.0848 51.4826 66.3006 51.0987 66.3006H42.6872C42.5426 66.3162 42.3974 66.2788 42.2783 66.1954C42.1593 66.112 42.0745 65.9883 42.0398 65.8471L38.741 56.2538ZM26.1331 48.275H36.3549C36.0953 47.4131 35.7929 46.4427 35.4479 45.3638C35.1029 44.285 34.7366 43.1314 34.349 41.9032L33.1841 38.2149C32.7965 36.9868 32.4408 35.8006 32.1172 34.6565C31.7935 33.5124 31.4999 32.4667 31.2365 31.5195H31.1706C30.8074 33.2668 30.3539 34.9941 29.812 36.6945C29.2085 38.6365 28.5938 40.6205 27.9678 42.6465C27.3418 44.6726 26.7277 46.5487 26.1255 48.275H26.1331Z" fill="#9999FF"/>
<path d="M75.2946 52.5715H62.5493C62.7051 53.8324 63.1238 55.0466 63.7781 56.1356C64.5018 57.2137 65.5247 58.0568 66.7212 58.5612C68.3437 59.2633 70.0985 59.6073 71.866 59.5699C73.2677 59.5431 74.664 59.3895 76.0379 59.1107C77.2671 58.9432 78.4715 58.6272 79.6246 58.1698C79.8404 57.9992 79.9483 58.1071 79.9483 58.4935V64.6394C79.9679 64.7928 79.9415 64.9485 79.8725 65.0869C79.8035 65.2252 79.6949 65.34 79.5607 65.4166C78.2807 65.983 76.9338 66.3839 75.5524 66.6097C73.6762 66.963 71.769 67.1256 69.86 67.0951C66.7965 67.0951 64.2304 66.6209 62.1616 65.6725C60.2053 64.8105 58.4771 63.5037 57.1147 61.8563C55.8441 60.3039 54.8983 58.5121 54.3334 56.5873C53.7751 54.6853 53.4919 52.7133 53.4923 50.7311C53.4868 48.5675 53.8253 46.4167 54.4952 44.3594C55.1417 42.3525 56.1635 40.4866 57.5061 38.8608C58.8299 37.2538 60.4854 35.952 62.3592 35.0445C64.2561 34.1168 66.4992 33.7838 69.0866 33.7838C71.233 33.7308 73.3647 34.1509 75.3304 35.0144C76.9827 35.7184 78.4371 36.8169 79.5663 38.2135C80.6268 39.581 81.4372 41.1252 81.9599 42.7749C82.4697 44.3644 82.7319 46.0228 82.7371 47.692C82.7371 48.6405 82.7045 49.503 82.6393 50.2795C82.5753 51.0548 82.5207 51.6156 82.4793 51.9618C82.4619 52.1044 82.393 52.2356 82.2855 52.3309C82.1781 52.4262 82.0396 52.479 81.896 52.4793C81.6375 52.4793 81.1953 52.5113 80.5693 52.5753C79.9445 52.6411 79.1674 52.6825 78.2415 52.7051C77.3157 52.7277 76.3296 52.5715 75.2946 52.5715ZM62.5493 46.6778H71.0173C72.0523 46.6778 72.8176 46.6671 73.3131 46.6458C73.6457 46.6124 73.9669 46.5064 74.254 46.3353V45.9457C74.2403 45.4402 74.1528 44.9394 73.9943 44.4591C73.6455 43.3551 72.9437 42.3962 71.9969 41.7298C71.05 41.0634 69.9105 40.7265 68.7535 40.7708C67.6649 40.7055 66.5808 40.9583 65.6332 41.4982C64.6857 42.0381 63.9156 42.842 63.4168 43.8118C62.9761 44.7145 62.6832 45.6822 62.5493 46.6778Z" fill="#9999FF"/>
</svg>
