<svg width="15" height="19" viewBox="0 0 15 19" fill="none" xmlns="http://www.w3.org/2000/svg">
<path fill-rule="evenodd" clip-rule="evenodd" d="M12.5313 10.0944C12.5082 7.68914 14.4336 6.5349 14.5196 6.47776C13.4374 4.84526 11.7513 4.62086 11.1506 4.59563C9.7158 4.44625 8.35137 5.46726 7.62242 5.46726C6.89548 5.46726 5.77214 4.61804 4.58249 4.64051C3.01883 4.66435 1.57723 5.5784 0.771132 7.02264C-0.85341 9.92927 0.355605 14.2373 1.93901 16.5943C2.71249 17.7485 3.63491 19.0451 4.84632 18.9988C6.0125 18.9515 6.45382 18.2197 7.86448 18.2197C9.2748 18.2197 9.67089 18.9988 10.9054 18.9739C12.1607 18.9501 12.9559 17.7972 13.7243 16.6391C14.6134 15.2997 14.9779 14.0045 15 13.9379C14.9721 13.925 12.5524 12.9692 12.5279 10.0955L12.5313 10.0944H12.5313ZM10.2125 3.03393C10.8551 2.22995 11.2893 1.11392 11.1706 0C10.2448 0.0389178 9.12214 0.63637 8.45747 1.43931C7.86077 2.15212 7.33954 3.28813 7.47895 4.37925C8.51289 4.46237 9.56856 3.83755 10.2115 3.03532L10.2125 3.03393Z" fill="black"/>
</svg>
