<svg width="37" height="27" viewBox="0 0 37 27" fill="none" xmlns="http://www.w3.org/2000/svg">
<path d="M2.12222 0H34.8781C35.4619 0 35.9925 0.241267 36.3767 0.628691C36.7612 1.01672 37 1.55304 37 2.14162V24.8581C37 25.302 36.8642 25.7156 36.6323 26.0586C36.5899 26.1695 36.5236 26.2729 36.433 26.3607C36.3725 26.4181 36.3059 26.4652 36.2355 26.5008C35.8666 26.811 35.3927 27 34.8781 27H2.12222C1.53897 27 1.00781 26.759 0.622995 26.371C0.239081 25.9833 0 25.4479 0 24.8581V2.14162C0 1.55183 0.238479 1.01612 0.622694 0.628691C1.00691 0.240659 1.53776 0 2.12222 0ZM1.6278 23.9571L13.1073 12.3435L1.6278 2.89824V23.9571ZM14.3716 13.3836L2.53654 25.357H34.3641L23.0538 13.3854L19.3252 16.5915C19.0328 16.8437 18.595 16.858 18.2855 16.6046L14.3716 13.3836ZM24.2917 12.3213L35.3722 24.0498V2.79493L24.2917 12.3213ZM2.66994 1.64268L18.7856 14.9029L34.2093 1.64268H2.66994Z" fill="black"/>
</svg>
