<svg width="58" height="85" viewBox="0 0 58 85" fill="none" xmlns="http://www.w3.org/2000/svg">
<path d="M28.5 40.7796C28.5 33.836 34.1306 28.2087 41.0726 28.2087H42.8911C42.9407 28.2103 42.9952 28.207 43.0464 28.207C50.8357 28.207 57.1517 34.5247 57.1517 42.3124C57.1517 50.1001 50.8357 56.4161 43.0464 56.4161C42.9952 56.4161 42.9407 56.4145 42.8895 56.4145L41.0726 56.4161C34.1306 56.4161 28.5 50.7855 28.5 43.8435V40.7796Z" fill="#00B6FF"/>
<path d="M0 70.524C0 62.7347 6.31604 56.417 14.1054 56.417L28.4965 56.4186V70.3787C28.4965 78.2489 22.045 84.6261 14.1747 84.6261C6.38706 84.6261 0 78.3117 0 70.524Z" fill="#24CB71"/>
<path d="M28.5 0.00165168V28.2091H42.8911C42.9407 28.2074 42.9952 28.2107 43.0464 28.2107C50.8357 28.2107 57.1517 21.8931 57.1517 14.1054C57.1517 6.31604 50.8357 0 43.0464 0C42.9952 0 42.9407 0.00165168 42.8895 0.00165168H28.5Z" fill="#FF7237"/>
<path d="M0 14.103C0 21.8924 6.31604 28.2084 14.1054 28.2084H28.4965V0.000976562H14.1037C6.31604 0.000976562 0 6.31536 0 14.103Z" fill="#FF3737"/>
<path d="M0 42.313C0 50.1023 6.31604 56.4184 14.1054 56.4184H28.4965V28.2109H14.1037C6.31604 28.2109 0 34.5253 0 42.313Z" fill="#874FFF"/>
</svg>
