<svg width="98" height="95" viewBox="0 0 98 95" fill="none" xmlns="http://www.w3.org/2000/svg">
<path d="M79.8677 0H17.1869C7.69483 0 0 7.69483 0 17.1869V77.4406C0 86.9326 7.69483 94.6275 17.1869 94.6275H79.8677C89.3597 94.6275 97.0546 86.9326 97.0546 77.4406V17.1869C97.0546 7.69483 89.3597 0 79.8677 0Z" fill="#330000"/>
<path d="M47.0311 56.7886H31.9904L28.9314 66.2939C28.891 66.4681 28.7905 66.6224 28.6474 66.7296C28.5044 66.8369 28.3281 66.8903 28.1496 66.8803H20.5325C20.0973 66.8803 19.9455 66.6412 20.0771 66.163L33.0986 28.6543C33.2251 28.2634 33.3554 27.8206 33.4895 27.326C33.6586 26.4568 33.7457 25.5737 33.7495 24.6882C33.7418 24.6359 33.7445 24.5825 33.7575 24.5312C33.7705 24.4798 33.7935 24.4316 33.8253 24.3892C33.857 24.3469 33.8969 24.3113 33.9425 24.2844C33.9881 24.2576 34.0386 24.24 34.0911 24.2328C34.1288 24.2271 34.1672 24.2271 34.205 24.2328H44.5566C44.8602 24.2328 45.0329 24.341 45.0784 24.5573L59.8572 66.2275C59.9881 66.6601 59.8572 66.8784 59.4663 66.8784H51.0028C50.8575 66.8945 50.7113 66.8572 50.5915 66.7734C50.4717 66.6896 50.3866 66.565 50.3519 66.4229L47.0311 56.7886ZM34.3359 48.5795H44.6211C44.3617 47.7104 44.0581 46.7337 43.7102 45.6495C43.3623 44.5653 42.9935 43.404 42.6039 42.1655L41.4312 38.4556C41.0402 37.2183 40.6822 36.0241 40.3571 34.8729C40.032 33.7216 39.7366 32.6716 39.4709 31.7228H39.4064C39.0396 33.4807 38.583 35.2187 38.0382 36.9299C37.4309 38.8845 36.8123 40.8814 36.1823 42.9207C35.5523 44.96 34.9368 46.8463 34.3359 48.5795Z" fill="#FF9A00"/>
<path d="M68.6469 31.1363C67.9829 31.1627 67.3207 31.0488 66.7037 30.8019C66.0866 30.555 65.5286 30.1808 65.0661 29.7036C64.6048 29.2055 64.2466 28.6212 64.0121 27.9842C63.7776 27.3471 63.6715 26.67 63.6998 25.9918C63.6772 25.3216 63.796 24.6543 64.0484 24.0331C64.3008 23.4119 64.6812 22.8508 65.1648 22.3863C65.6437 21.9266 66.2088 21.5662 66.8276 21.3258C67.4464 21.0855 68.1066 20.9699 68.7703 20.9858C70.3327 20.9858 71.5585 21.4526 72.4479 22.3863C73.3501 23.3651 73.8277 24.6616 73.7762 25.9918C73.8036 26.6728 73.6938 27.3523 73.4532 27.99C73.2126 28.6276 72.8462 29.2104 72.3758 29.7036C71.8863 30.1861 71.3024 30.5624 70.6608 30.8089C70.0192 31.0555 69.3336 31.1669 68.6469 31.1363ZM64.1552 66.2273V35.1061C64.1552 34.7152 64.3279 34.5198 64.6752 34.5198H72.6813C73.0267 34.5198 73.2012 34.7095 73.2012 35.1061V66.2273C73.2012 66.66 73.0286 66.8782 72.6813 66.8782H64.7416C64.3507 66.8801 64.1552 66.6619 64.1552 66.2273Z" fill="#FF9A00"/>
</svg>
