<svg width="32" height="32" viewBox="0 0 32 32" fill="none" xmlns="http://www.w3.org/2000/svg">
<path d="M24.7744 0H7.22563C3.23502 0 0 3.23502 0 7.22563V24.6269C0 28.6175 3.23502 31.8525 7.22563 31.8525H24.7744C28.765 31.8525 32 28.6175 32 24.6269V7.22563C32 3.23502 28.765 0 24.7744 0Z" fill="black"/>
<path fill-rule="evenodd" clip-rule="evenodd" d="M12.8062 12.3475H16.8494V14.42H16.9081C17.4712 13.41 18.8481 12.3475 20.9012 12.3475C25.1706 12.3475 25.96 15.0044 25.96 18.4607V25.7682H21.7437L21.7431 19.26C21.7431 17.7719 21.7125 15.8569 19.5506 15.8569C17.3556 15.8569 17.0187 17.4763 17.0187 19.1519V25.7682H12.8062V12.3475ZM10.4169 8.27941C10.4169 9.48941 9.43437 10.4719 8.22438 10.4719C7.01375 10.4719 6.03125 9.48941 6.03125 8.27941C6.03125 7.06879 7.01375 6.08691 8.22438 6.08691C9.43437 6.08691 10.4169 7.06879 10.4169 8.27941ZM6.03125 12.3475H10.4169V25.7682H6.03125V12.3475Z" fill="white"/>
</svg>
