<svg width="308" height="310" viewBox="0 0 308 310" fill="none" xmlns="http://www.w3.org/2000/svg">
<path d="M7.5 130.25L28.1503 221.684" stroke="#6E6E6E" stroke-width="15" stroke-linecap="round"/>
<path d="M28.0547 221.88H103.859" stroke="#6E6E6E" stroke-width="15" stroke-linecap="round"/>
<path d="M65.5469 223.507V298.496" stroke="#6E6E6E" stroke-width="15" stroke-linecap="round"/>
<path d="M41.9062 298.498C41.9062 295.808 42.7132 292.001 44.3393 287.795C46.4587 282.314 53.8393 281.397 65.0918 278.536C71.6073 276.879 78.545 277.305 86.0031 278.784C89.4266 280.264 92.1164 283.223 94.309 286.899C96.5016 290.575 98.1155 294.879 99.7783 300.128" stroke="#6E6E6E" stroke-width="15" stroke-linecap="round"/>
<path d="M124.438 181.939H300.499" stroke="#6E6E6E" stroke-width="15" stroke-linecap="round"/>
<path d="M170.891 197.426V301.759" stroke="#6E6E6E" stroke-width="15" stroke-linecap="round"/>
<path d="M267.07 199.056V300.128" stroke="#6E6E6E" stroke-width="15" stroke-linecap="round"/>
<path d="M123.09 140.369C118.24 141.983 107.359 146.874 102.729 150.68C98.9672 153.773 89.7364 157.714 82.2252 163.445C73.5554 170.059 68.234 173.772 64.2808 177.982C59.6446 182.919 55.1925 188.705 50.8317 194.687C46.8196 200.192 46.4709 208.006 47.5468 210.586C52.37 222.15 76.3361 211.56 82.4453 211.014C91.7555 210.182 104.017 206.131 110.032 204.766C114.868 203.669 120.352 203.409 131.062 203.535C135.454 203.587 138.023 206.384 139.922 208.145C145.557 213.369 140.224 227.014 137.094 232.997C134.633 237.701 133.964 242.778 133.552 248.211C133.053 254.794 131.518 259.618 130.43 265.736C129.481 271.072 128.796 276.458 127.985 282.042C126.628 286.533 124.46 292.483 123.233 297.516C123.082 298.784 123.889 297.439 124.72 296.053" stroke="black" stroke-width="15" stroke-linecap="round"/>
<path d="M232.319 170.528C227.478 170.528 222.636 170.528 210.458 170.528C198.281 170.528 178.914 170.528 168.13 170.393C151.557 170.187 144.044 163.762 139.414 159.402C135.677 155.882 131.263 152.889 127.188 149.213C124.983 147.224 123.373 144.999 120.675 143.369C115.581 140.291 109.794 143.352 107.76 144.571C103.637 147.042 100.567 152.302 92.5624 157.197C85.6177 161.007 76.9614 167.496 71.0804 171.469C70.1227 172.15 69.3158 172.957 66.0391 175.418" stroke="black" stroke-width="15" stroke-linecap="round"/>
<path d="M211.128 158.301C211.128 151.519 211.666 145.569 212.754 139.847C214.241 132.03 214.389 123.3 209.792 115.667C206.477 110.162 197.581 110.21 188.085 109.533C176.791 108.729 168.482 109.933 166.18 111.689C159.075 117.109 157.609 125.403 156.655 132.996C155.88 139.164 157.862 144.428 160.168 147.411C165.161 153.869 178.215 157.208 184.744 158.162C198.463 160.166 207.583 155.048 209.755 153.153C210.851 150.72 211.397 147.99 211.805 141.783C211.943 136.921 211.943 128.582 211.943 119.991" stroke="black" stroke-width="15" stroke-linecap="round"/>
<path d="M260.977 173.585C262.052 173.585 263.128 173.585 267.852 173.585C272.575 173.585 280.914 173.585 289.505 171.955" stroke="black" stroke-width="15" stroke-linecap="round"/>
<path d="M270.75 52.1348C267.22 69.5045 265.598 76.0172 264.099 82.538C262.001 91.656 259.371 108.002 257.574 118.133C255.279 126.545 251.465 135.797 250.376 141.502C250.103 142.872 249.834 143.948 248.742 145.871" stroke="black" stroke-width="15" stroke-linecap="round"/>
<path d="M264.227 102.671C265.302 109.444 269.101 116.495 270.609 121.805C272.506 128.486 272.638 134.704 273.327 140.687C273.958 146.17 275.361 153.174 276.449 159.703C276.722 161.342 276.991 162.956 277.264 164.46C277.537 165.963 277.806 167.308 278.083 171.139" stroke="#6E6E6E" stroke-width="15" stroke-linecap="round"/>
<path d="M217.148 63.5449C220.376 63.8139 223.604 64.0829 225.536 65.1629C227.468 66.2429 228.006 68.1258 227.879 69.6337C227.437 74.9104 223.946 77.6625 222.593 79.4271C221.944 80.274 220.702 80.3849 219.61 80.5235C218.518 80.662 217.442 80.662 220.653 80.662C223.865 80.662 231.396 80.662 239.156 80.662" stroke="#6E6E6E" stroke-width="7" stroke-linecap="round"/>
<path d="M219.586 43.9842C225.504 43.4462 231.242 43.1691 233.972 43.4381C236.728 43.7096 227.207 46.1442 224.9 48.7199C223.858 49.8835 223.401 51.0267 224.872 51.5809C226.343 52.1352 229.84 52.1352 232.583 52.0007C235.326 51.8662 237.208 51.5972 239.963 49.6899" stroke="#6E6E6E" stroke-width="7" stroke-linecap="round"/>
<path d="M227.734 4.04202C233.652 3.77305 239.57 3.50408 241.677 3.5C242.024 3.49933 238.347 4.84897 235.095 7.01306C233.324 8.19161 231.842 10.2531 232.491 11.6265C236.097 13.8069 240.491 14.6383 243.335 14.5038C244.835 14.3693 246.449 14.1004 248.112 13.8232" stroke="#6E6E6E" stroke-width="7" stroke-linecap="round"/>
</svg>
