<svg width="97" height="94" viewBox="0 0 97 94" fill="none" xmlns="http://www.w3.org/2000/svg">
<path d="M79.1181 0H17.0245C7.62212 0 0 7.62212 0 17.0245V76.7153C0 86.1177 7.62212 93.7398 17.0245 93.7398H79.1181C88.5205 93.7398 96.1426 86.1177 96.1426 76.7153V17.0245C96.1426 7.62212 88.5205 0 79.1181 0Z" fill="#001E36"/>
<path d="M21.6562 65.7355V24.5213C21.6562 24.2226 21.784 24.0705 22.0433 24.0705C22.729 24.0705 23.3583 24.0705 24.2977 24.0385C25.237 24.0066 26.2646 23.9953 27.3618 23.9746L30.8448 23.9089C32.0697 23.8876 33.2839 23.877 34.4875 23.877C37.7552 23.877 40.5105 24.2852 42.7537 25.1018C44.7702 25.7854 46.6094 26.9091 48.1379 28.3914C49.4341 29.677 50.4353 31.2289 51.0724 32.9396C51.6751 34.6055 51.9797 36.3645 51.9723 38.136C51.9723 41.5777 51.177 44.4158 49.5864 46.6501C47.9846 48.8941 45.7338 50.5935 43.1369 51.5196C40.4279 52.5304 37.4164 52.8723 34.1062 52.8723C33.1668 52.8723 32.4943 52.8629 32.1073 52.8403C31.7203 52.8178 31.1398 52.8084 30.3657 52.8084V65.6754C30.3756 65.7422 30.372 65.8102 30.3554 65.8756C30.3388 65.941 30.3093 66.0025 30.2688 66.0565C30.2283 66.1105 30.1775 66.1559 30.1193 66.1901C30.0611 66.2243 29.9968 66.2467 29.9299 66.2559C29.882 66.2634 29.8332 66.2634 29.7852 66.2559H22.1071C21.799 66.2503 21.6562 66.0793 21.6562 65.7355ZM30.3657 31.8106V45.2524C30.9243 45.2963 31.4403 45.3175 31.9138 45.3163H34.0423C35.6085 45.3109 37.1644 45.0625 38.6544 44.5799C39.9317 44.202 41.0735 43.4652 41.944 42.457C42.7818 41.4688 43.2008 40.0911 43.2008 38.3239C43.2333 37.0761 42.9073 35.8451 42.2615 34.777C41.5846 33.7438 40.6059 32.9442 39.4585 32.4869C37.9628 31.906 36.3656 31.6319 34.7618 31.6809C33.7286 31.6809 32.8149 31.6916 32.0209 31.7129C31.2268 31.7342 30.6782 31.7667 30.3751 31.8106H30.3657Z" fill="#31A8FF"/>
<path d="M76.906 42.8083C75.694 42.1848 74.4028 41.7292 73.0679 41.4538C71.5975 41.1159 70.0941 40.9426 68.5854 40.9371C67.7695 40.9153 66.9549 41.0135 66.1675 41.2283C65.6658 41.3395 65.2197 41.6251 64.9088 42.0343C64.6987 42.3616 64.5872 42.7425 64.5876 43.1314C64.599 43.5086 64.7351 43.8713 64.9746 44.1628C65.3511 44.6036 65.8115 44.9651 66.3291 45.2261C67.2481 45.7197 68.1954 46.1588 69.1659 46.5412C71.3305 47.2662 73.3991 48.2516 75.326 49.4757C76.6375 50.3049 77.7231 51.446 78.486 52.7972C79.1288 54.0786 79.4511 55.4968 79.4253 56.9302C79.4634 58.8206 78.9233 60.6775 77.8773 62.2525C76.7567 63.8501 75.2008 65.0923 73.3948 65.8313C71.4334 66.693 69.0125 67.1239 66.1318 67.1239C64.3028 67.1409 62.4769 66.9677 60.6837 66.6072C59.2704 66.3481 57.8947 65.9146 56.5882 65.3166C56.4469 65.2441 56.3292 65.1327 56.249 64.9956C56.1688 64.8585 56.1294 64.7013 56.1355 64.5426V57.5784C56.1273 57.5101 56.1381 57.4408 56.1666 57.3782C56.195 57.3156 56.2402 57.262 56.297 57.2233C56.3524 57.1917 56.4161 57.1778 56.4796 57.1835C56.5431 57.1892 56.6033 57.2143 56.6521 57.2552C58.1965 58.1658 59.8737 58.8294 61.623 59.2222C63.1638 59.6089 64.7444 59.8144 66.3329 59.8346C67.8358 59.8346 68.943 59.6411 69.6543 59.2541C69.9746 59.1075 70.2454 58.8711 70.4341 58.5737C70.6229 58.2763 70.7213 57.9306 70.7177 57.5784C70.7177 57.0185 70.3952 56.4806 69.7502 55.9646C69.1051 55.4486 67.7926 54.8286 65.8125 54.1047C63.7874 53.4 61.8674 52.4236 60.1051 51.2022C58.8447 50.3266 57.8063 49.1686 57.0729 47.8206C56.4372 46.55 56.1152 45.1457 56.1336 43.7251C56.1281 42.0138 56.5976 40.3346 57.49 38.8744C58.5039 37.2701 59.9601 35.9933 61.6832 35.1978C63.5744 34.2522 65.939 33.7794 68.777 33.7794C70.4395 33.7655 72.1004 33.8836 73.7442 34.1326C74.9341 34.2856 76.0973 34.6017 77.2009 35.072C77.2886 35.0971 77.3691 35.1423 77.4363 35.2039C77.5035 35.2655 77.5554 35.3419 77.5879 35.427C77.6317 35.5842 77.6532 35.7467 77.6518 35.9098V42.425C77.657 42.5003 77.6424 42.5757 77.6095 42.6436C77.5765 42.7115 77.5263 42.7696 77.464 42.8121C77.377 42.8546 77.2814 42.8765 77.1845 42.8758C77.0877 42.8752 76.9924 42.8521 76.906 42.8083Z" fill="#31A8FF"/>
</svg>
