<svg width="18" height="19" viewBox="0 0 18 19" fill="none" xmlns="http://www.w3.org/2000/svg">
<path d="M11.7031 13.29L3.04883 18.2344L3.04102 18.2383L3.03418 18.2432C2.77305 18.4172 2.46377 18.5078 2.09863 18.5078C1.31479 18.5077 0.607041 18.0074 0.335938 17.2803L7.34375 9.07617L11.7031 13.29Z" fill="black" stroke="white" stroke-width="0.5"/>
<path d="M15.7676 7.73145L15.7734 7.73438C16.358 8.04887 16.7669 8.68186 16.8164 9.35938C16.8144 10.026 16.4121 10.6579 15.8242 10.9746L15.8203 10.9766L12.1484 13.0322L8.32617 9.35156L12.0977 5.62695L15.7676 7.73145Z" fill="black" stroke="white" stroke-width="0.5"/>
<path d="M2.09863 0.25C2.47042 0.25 2.82856 0.343738 3.08496 0.514648L3.10059 0.524414L11.6553 5.37012L7.32422 9.65137L0.332031 1.47266C0.556141 0.782811 1.28009 0.250153 2.09863 0.25Z" fill="black" stroke="white" stroke-width="0.5"/>
<path d="M7.61914 9.35449L0.25 16.6758V2.08203L7.61914 9.35449Z" fill="black" stroke="white" stroke-width="0.5"/>
</svg>
