<svg width="96" height="94" viewBox="0 0 96 94" fill="none" xmlns="http://www.w3.org/2000/svg">
<path d="M16.9997 6.60679e-06H78.9985C81.2315 -0.00196282 83.4431 0.436388 85.5066 1.28998C87.5701 2.14357 89.445 3.39565 91.0241 4.97458C92.6032 6.55351 93.8555 8.42831 94.7093 10.4917C95.5631 12.5551 96.0017 14.7666 96 16.9997V76.6023C96.0017 78.8353 95.5631 81.0467 94.7093 83.11C93.8554 85.1733 92.6031 87.0479 91.024 88.6267C89.4449 90.2055 87.5699 91.4574 85.5064 92.3108C83.4429 93.1642 81.2315 93.6023 78.9985 93.6001H16.9997C14.7668 93.6021 12.5555 93.1638 10.4923 92.3103C8.42901 91.4568 6.55429 90.2048 4.97536 88.6261C3.39643 87.0473 2.14428 85.1727 1.29055 83.1095C0.436828 81.0464 -0.00171847 78.8351 5.06057e-06 76.6023V16.9997C-0.00171815 14.7667 0.436815 12.5554 1.29052 10.4921C2.14422 8.42886 3.39634 6.55415 4.97524 4.97524C6.55415 3.39634 8.42886 2.14422 10.4921 1.29052C12.5554 0.436816 14.7667 -0.0017166 16.9997 6.60679e-06Z" fill="#00005B"/>
<path d="M22.8047 65.6419V24.4803C22.8047 24.2014 22.9245 24.0404 23.2053 24.0404C23.8848 24.0404 24.5251 24.0404 25.4517 24.0011C26.412 23.9618 27.4117 23.9618 28.4918 23.9206C29.572 23.8794 30.7382 23.8813 31.9719 23.8401C33.2055 23.7989 34.4055 23.8008 35.6129 23.8008C38.8927 23.8008 41.6033 24.2014 43.8497 25.0401C45.8582 25.7225 47.6897 26.8435 49.2111 28.3217C50.5006 29.6145 51.4967 31.1698 52.1315 32.8819C52.7363 34.5485 53.0473 36.3074 53.0506 38.0804C53.0506 41.5212 52.2506 44.3616 50.6507 46.6018C49.0417 48.839 46.7955 50.5392 44.2054 51.4802C41.4854 52.4799 38.4846 52.8393 35.2048 52.8393C34.2445 52.8393 33.6043 52.8393 33.2055 52.8C32.8068 52.7607 32.2452 52.7607 31.4852 52.7607V65.6007C31.494 65.6666 31.4896 65.7336 31.4722 65.7978C31.4548 65.862 31.4247 65.922 31.3837 65.9743C31.3427 66.0267 31.2916 66.0703 31.2335 66.1026C31.1753 66.1348 31.1113 66.1552 31.0452 66.1623H23.2839C22.9638 66.1623 22.8047 66.0013 22.8047 65.6419ZM31.5245 31.7587V45.1996C32.0861 45.239 32.6046 45.2801 33.0838 45.2801H35.1973C36.7616 45.2813 38.3163 45.0362 39.8043 44.5538C41.0795 44.1794 42.2187 43.4433 43.0841 42.4347C43.9246 41.4332 44.3252 40.0741 44.3252 38.3163C44.3617 37.0673 44.0423 35.8338 43.4042 34.7595C42.735 33.7197 41.7512 32.9209 40.5962 32.4794C39.0943 31.8906 37.487 31.6184 35.875 31.68C34.836 31.68 33.915 31.68 33.155 31.7194C32.6083 31.6843 32.0595 31.6974 31.5151 31.7587H31.5245Z" fill="#9999FF"/>
<path d="M58.6483 34.0824H65.6477C65.8375 34.0866 66.021 34.1509 66.172 34.2659C66.323 34.3809 66.4337 34.5408 66.4882 34.7226C66.6107 35.0441 66.6913 35.3801 66.7279 35.7222C66.8084 36.121 66.8888 36.5609 66.9282 36.9615C66.9675 37.4014 67.0087 37.8825 67.0087 38.4011C68.2099 36.9997 69.661 35.8337 71.288 34.9622C73.1471 33.9283 75.2411 33.3907 77.3683 33.4009C77.4342 33.3921 77.5012 33.3965 77.5654 33.4139C77.6295 33.4313 77.6896 33.4614 77.7419 33.5024C77.7943 33.5434 77.8379 33.5945 77.8701 33.6526C77.9024 33.7108 77.9228 33.7748 77.9299 33.8409V41.8025C77.9299 42.1226 77.7296 42.2424 77.2897 42.2424C75.8385 42.1939 74.3869 42.3278 72.9691 42.6411C71.8145 42.881 70.6887 43.2431 69.6107 43.7213C68.8368 44.0708 68.1425 44.5746 67.5703 45.202V65.6069C67.5703 66.0056 67.4093 66.1685 67.0498 66.1685H59.1612C59.0877 66.1793 59.0127 66.1754 58.9406 66.157C58.8686 66.1386 58.8009 66.1061 58.7415 66.0613C58.6821 66.0166 58.6322 65.9605 58.5947 65.8963C58.5571 65.8321 58.5327 65.7611 58.5229 65.6874V43.3619C58.5229 42.4015 58.5229 41.4019 58.4817 40.3667C58.4405 39.3315 58.4424 38.2869 58.4012 37.2479C58.4012 36.3269 58.3226 35.447 58.2421 34.5279C58.2224 34.4324 58.2408 34.3331 58.2932 34.2509C58.3456 34.1688 58.428 34.1103 58.5229 34.088C58.5229 34.0468 58.6015 34.0468 58.6427 34.088L58.6483 34.0824Z" fill="#9999FF"/>
</svg>
