<svg width="19" height="19" viewBox="0 0 19 19" fill="none" xmlns="http://www.w3.org/2000/svg">
<path d="M9.5 4.99902C11.9855 4.99902 13.9999 7.01357 14 9.49902C14 11.9846 11.9852 13.999 9.5 13.999C7.01454 13.9989 5 11.9845 5 9.49902C5.00011 7.01364 7.01461 4.99914 9.5 4.99902Z" fill="black" stroke="white" stroke-width="0.5"/>
<path d="M5.16992 12.001C5.60865 12.7612 6.2396 13.3933 7 13.832C7.76023 14.2706 8.62235 14.5009 9.5 14.501C10.3779 14.501 11.2409 14.2702 12.001 13.8311C12.1066 13.77 12.2082 13.703 12.3086 13.6348L9.35742 18.7471C7.78339 18.723 6.24093 18.2994 4.87598 17.5117C3.4696 16.7001 2.30129 15.5329 1.48926 14.127C0.677256 12.7209 0.250028 11.1256 0.25 9.50195C0.25 8.02494 0.604111 6.57163 1.2793 5.2627L5.16992 12.001Z" fill="url(#paint0_linear_849_2503)" stroke="white" stroke-width="0.5"/>
<path d="M17.5801 5.00098C18.3466 6.37602 18.7506 7.92494 18.751 9.50098C18.7513 11.1245 18.3243 12.72 17.5127 14.126C16.7011 15.5319 15.5329 16.6991 14.127 17.5107C12.848 18.2494 11.4124 18.6686 9.94141 18.7383L13.8311 12.001C14.2701 11.2407 14.5014 10.3786 14.501 9.50098C14.5009 8.62328 14.2701 7.76099 13.8311 7.00098C13.3919 6.24098 12.7605 5.60966 12 5.1709C11.8948 5.11018 11.7876 5.05366 11.6787 5.00098H17.5801Z" fill="url(#paint1_linear_849_2503)" stroke="white" stroke-width="0.5"/>
<path d="M9.49219 0.25C11.1157 0.250079 12.7103 0.677407 14.1162 1.48926C15.3951 2.22752 16.4765 3.26091 17.2725 4.5H9.49219C8.7241 4.49972 7.9675 4.67625 7.28125 5.01465L6.99219 5.16992C6.23174 5.60867 5.5999 6.23957 5.16113 7C4.72233 7.76014 4.49219 8.62321 4.49219 9.50098C4.49219 9.62246 4.49705 9.74361 4.50586 9.86426L1.55566 4.75293C2.36335 3.40192 3.5025 2.27739 4.86719 1.48926C6.27319 0.677352 7.86863 0.25 9.49219 0.25Z" fill="url(#paint2_linear_849_2503)" stroke="white" stroke-width="0.5"/>
<defs>
<linearGradient id="paint0_linear_849_2503" x1="10.5283" y1="18.4066" x2="2.30183" y2="4.158" gradientUnits="userSpaceOnUse">
<stop offset="1"/>
</linearGradient>
<linearGradient id="paint1_linear_849_2503" x1="8.11561" y1="19.0254" x2="16.3421" y2="4.77674" gradientUnits="userSpaceOnUse">
<stop offset="1"/>
</linearGradient>
<linearGradient id="paint2_linear_849_2503" x1="1.26558" y1="5.93794" x2="17.7185" y2="5.93794" gradientUnits="userSpaceOnUse">
<stop offset="1"/>
</linearGradient>
</defs>
</svg>
